<svg xmlns="http://www.w3.org/2000/svg" version="1.1" xmlns:xlink="http://www.w3.org/1999/xlink" xmlns:svgjs="http://svgjs.dev/svgjs" width="128" height="128" viewBox="0 0 128 128"><g transform="matrix(0.8046875,0,0,0.8046875,12.333870967741937,24.009715552380058)"><svg viewBox="0 0 155 120" data-background-color="#ffffff" preserveAspectRatio="xMidYMid meet" height="99" width="128" xmlns="http://www.w3.org/2000/svg" xmlns:xlink="http://www.w3.org/1999/xlink"><g id="tight-bounds" transform="matrix(1,0,0,1,0.25,0.23838080959519914)"><svg viewBox="0 0 154.5 119.5232383808096" height="119.5232383808096" width="154.5"><g><svg viewBox="0 0 154.5 119.5232383808096" height="119.5232383808096" width="154.5"><g><svg viewBox="0 0 154.5 119.5232383808096" height="119.5232383808096" width="154.5"><g id="textblocktransform"><svg viewBox="0 0 154.5 119.5232383808096" height="119.5232383808096" width="154.5" id="textblock"><g><svg viewBox="0 0 154.5 119.5232383808096" height="119.5232383808096" width="154.5"><g transform="matrix(1,0,0,1,0,0)"><svg width="154.5" viewBox="3.17 -36.96 48.86 37.79" height="119.5232383808096" data-palette-color="#4f46e5"><path d="M16.31-21.04L15.41-21Q15.11-14.09 15.11-6.79L15.11-6.79 15.11 0.49 13.33 0.49 12.72 0.46 4.05 0.54Q3.22 0.54 3.17 0.56L3.17 0.56Q3.17 0.54 3.27 0.15L3.27 0.15 3.27 0 3.3-0.1Q3.17-1.86 3.17-4.37L3.17-4.37 3.27-31.64 3.25-32.91 3.25-34.13 3.2-36.43Q3.2-36.67 3.47-36.94L3.47-36.94 6.81-36.94 8.76-36.96Q15.65-36.96 18.62-36.77 21.58-36.57 22.88-36.57L22.88-36.57Q23.58-32.37 24.98-25.44L24.98-25.44 26.71-16.7 27.56-16.7 30.69-32.67Q30.76-33.03 31.03-34.8 31.3-36.57 31.45-36.77L31.45-36.77 31.54-36.77 47.44-36.91 48.39-36.89 51.12-36.89Q51.34-36.79 51.37-35.99L51.37-35.99 51.61-26.76Q51.9-15.28 52.03-8.89L52.03-8.89Q52.03-3.96 51.88 0.37L51.88 0.37Q51.81 0.66 50.9 0.71L50.9 0.71 49.8 0.76Q48.49 0.81 47.85 0.81L47.85 0.81 46.58 0.81Q44.21 0.83 39.6 0.83L39.6 0.83Q38.75 0.07 38.75-5.71L38.75-5.71 38.79-13.38 38.79-15.36Q38.79-17.97 38.77-19.21L38.77-19.21 37.84-19.38Q37.04-16.43 34.74-6.23L34.74-6.23 34.52-5.25Q34.35-4.49 33.95-2.55 33.54-0.61 33.3 0.39L33.3 0.39Q33.01 0.73 30.71 0.73L30.71 0.73 30.4 0.73 27.66 0.66 26.17 0.68 25.02 0.68 23.1 0.71 22.41 0.71Q21.29 0.71 21.17 0.2L21.17 0.2 21.19 0.22 18.97-9.47Q18.87-9.84 18.53-11.07 18.19-12.3 18.14-13.13L18.14-13.13 16.31-21.04Z" opacity="1" transform="matrix(1,0,0,1,0,0)" fill="#4f46e5" class="wordmark-text-0" data-fill-palette-color="primary" id="text-0"></path></svg></g></svg></g></svg></g></svg></g></svg></g><defs></defs></svg><rect width="154.5" height="119.5232383808096" fill="none" stroke="none" visibility="hidden"></rect></g></svg></g></svg>