<svg
                      xmlns="http://www.w3.org/2000/svg"
                      version="1.1"
                      width="180"
                      height="27"
                      viewBox="0 0 2000 303"
                    >
                      <svg
                        viewBox="0 0 396 60"
                        data-background-color="#ffffff"
                        preserveAspectRatio="xMidYMid meet"
                        height="303"
                        width="2000"
                        xmlns="http://www.w3.org/2000/svg"
                      >
                        <svg
                          viewBox="0 0 395.52 59.20249501359927"
                          height="59.20249501359927"
                          width="395.52"
                        >
                          <svg
                            viewBox="0 0 395.52 59.20249501359927"
                            height="59.20249501359927"
                            width="395.52"
                          >
                            <svg
                              viewBox="0 0 395.52 59.20249501359927"
                              height="59.20249501359927"
                              width="395.52"
                            >
                              <svg
                                viewBox="0 0 395.52 59.20249501359927"
                                height="59.20249501359927"
                                width="395.52"
                                id="textblock"
                              >
                                <svg
                                  viewBox="0 0 395.52 59.20249501359927"
                                  height="59.20249501359927"
                                  width="395.52"
                                >
                                  <svg
                                    width="395.52"
                                    viewBox="3.17 -38.72 269.27 40.31"
                                    height="59.20249501359927"
                                    data-palette-color="#4f46e5"
                                  >
                                    <path
                                      d="M16.31-21.04L15.41-21Q15.11-14.09 15.11-6.79L15.11-6.79 15.11 0.49 13.33 0.49 12.72 0.46 4.05 0.54Q3.22 0.54 3.17 0.56L3.17 0.56Q3.17 0.54 3.27 0.15L3.27 0.15 3.27 0 3.3-0.1Q3.17-1.86 3.17-4.37L3.17-4.37 3.27-31.64 3.25-32.91 3.25-34.13 3.2-36.43Q3.2-36.67 3.47-36.94L3.47-36.94 6.81-36.94 8.76-36.96Q15.65-36.96 18.62-36.77 21.58-36.57 22.88-36.57L22.88-36.57Q23.58-32.37 24.98-25.44L24.98-25.44 26.71-16.7 27.56-16.7 30.69-32.67Q30.76-33.03 31.03-34.8 31.3-36.57 31.45-36.77L31.45-36.77 31.54-36.77 47.44-36.91 48.39-36.89 51.12-36.89Q51.34-36.79 51.37-35.99L51.37-35.99 51.61-26.76Q51.9-15.28 52.03-8.89L52.03-8.89Q52.03-3.96 51.88 0.37L51.88 0.37Q51.81 0.66 50.9 0.71L50.9 0.71 49.8 0.76Q48.49 0.81 47.85 0.81L47.85 0.81 46.58 0.81Q44.21 0.83 39.6 0.83L39.6 0.83Q38.75 0.07 38.75-5.71L38.75-5.71 38.79-13.38 38.79-15.36Q38.79-17.97 38.77-19.21L38.77-19.21 37.84-19.38Q37.04-16.43 34.74-6.23L34.74-6.23 34.52-5.25Q34.35-4.49 33.95-2.55 33.54-0.61 33.3 0.39L33.3 0.39Q33.01 0.73 30.71 0.73L30.71 0.73 30.4 0.73 27.66 0.66 26.17 0.68 25.02 0.68 23.1 0.71 22.41 0.71Q21.29 0.71 21.17 0.2L21.17 0.2 21.19 0.22 18.97-9.47Q18.87-9.84 18.53-11.07 18.19-12.3 18.14-13.13L18.14-13.13 16.31-21.04ZM67.06-29.96L67.04-29.93Q68.14-30.25 69.38-30.25 70.63-30.25 71.75-30.15L71.75-30.15 72.78-30.05Q75.19-29.83 76.49-29.49L76.49-29.49 76.49-29.52 77-29.3Q82.13-27.71 84.98-24.46L84.98-24.46 84.98-24.49Q85.64-23.71 86.61-22.13 87.57-20.56 87.57-19.95L87.57-19.95 87.77-19.29 87.89-18.58Q88.35-16.94 88.35-15.84 88.35-14.75 88.38-14.16L88.38-14.16 68.26-14.16 68.26-13.35Q68.41-12.79 68.41-12.18 68.41-11.57 68.42-11.22 68.43-10.86 68.48-10.53 68.53-10.21 68.54-10 68.55-9.79 68.65-9.51 68.75-9.23 68.76-9.13 68.77-9.03 68.91-8.74 69.04-8.45 69.13-8.19 69.21-7.93 69.46-7.69L69.46-7.69 69.46-7.71 69.72-7.2Q70.19-6.69 70.99-6.47L70.99-6.47Q72.34-6.76 72.81-7.86 73.29-8.96 73.61-10.6L73.61-10.6Q74.48-10.84 76.1-10.84L76.1-10.84 79.22-10.77 88.23-10.77Q87.94-7.79 86.47-5.3L86.47-5.3 86.5-5.3Q85.23-3.3 82.54-1.86L82.54-1.86Q74.95 0.81 72.8 0.81L72.8 0.81Q72.41 0.81 72.17 0.76L72.17 0.76 71.6 0.76 71.38 0.78 71.16 0.78Q70.97 0.78 70.68 0.73L70.68 0.73Q70.43 0.88 70.09 0.88L70.09 0.88 67.97 0.63Q67.8 0.71 67.27 0.71 66.75 0.71 64.52 0.05L64.52 0.05 64.52 0.07 63.94-0.1 63.35-0.29Q59.69-1.37 57.08-4.06 54.47-6.76 53.73-10.35L53.73-10.35Q53.66-10.79 53.46-11.68 53.27-12.57 53.27-12.89L53.27-12.89 53.27-14.06Q53.27-14.48 53.29-14.7L53.29-14.7 53.29-15.06Q53.29-20.24 56.37-24.01 59.45-27.78 64.62-29.32L64.62-29.32 65.21-29.49Q66.5-29.71 67.06-29.96L67.06-29.96ZM71.16-17.38L74.34-17.38 74.85-17.7Q74.44-20.34 74.07-21.08 73.7-21.83 73.36-22.36L73.36-22.36Q72.73-23.39 71.69-23.39 70.65-23.39 69.92-22.36L69.92-22.36Q68.63-20.56 68.28-17.29L68.28-17.29Q69.85-17.38 71.16-17.38L71.16-17.38ZM90.74-19.46L90.74-19.46Q91.33-25.02 92.7-27.83L92.7-27.83Q95.31-33.25 100.48-35.52L100.48-35.52Q105.1-37.55 110.52-37.55L110.52-37.55Q119.6-37.55 123.77-32.57L123.77-32.57Q126.29-29.61 126.68-25.22L126.68-25.22 126.9-22.92Q126.48-22.53 121.65-22.53L121.65-22.53 117.77-22.58 117.45-22.58 115.33-22.63 114.74-22.61 114.25-22.61Q113.57-22.61 113.22-24.61 112.86-26.61 112.14-27.26 111.42-27.91 110.47-27.91 109.52-27.91 108.8-27.56 108.08-27.22 107.61-26.75 107.15-26.27 106.83-25.39L106.83-25.39Q106.25-23.88 106.12-22.18 106-20.48 106-18.38L106-18.38 106-17.8 105.9-15.33Q105.9-8.59 109.71-8.45L109.71-8.45Q110.69-8.45 111.08-8.79L111.08-8.79Q112.13-9.72 112.91-12.52L112.91-12.52Q113.08-13.11 113.33-13.48L113.33-13.48 114.25-13.48 115.38-13.45 119.33-13.45 120.53-13.48 122.85-13.45 124.26-13.45 125.7-13.43 126.68-13.43Q126.97-13.4 127.09-12.92L127.09-12.92 127.02-12.11Q126.8-9.23 125.68-6.88L125.68-6.88Q123.6-2.59 119.15-0.5 114.69 1.59 109.37 1.59L109.37 1.59Q100.07 1.59 95.41-3.91 90.74-9.4 90.74-19.46ZM128.61-14.55L128.61-29.22 135.1-29.25 141.59-29.25 142.13-25.98Q142.69-22.53 142.79-22.07L142.79-22.07 143.64-22.07Q144.55-26.25 147.11-28L147.11-28 148.09-28.56Q148.16-28.71 148.97-29.1L148.97-29.1 148.87-29.08 149.43-29.3Q151.82-30.25 153.56-30.27L153.56-30.27Q153.92-30.27 154.05-30.22L154.05-30.22 154.95-30.22 154.95-16.6Q154.44-16.72 153.34-16.72 152.24-16.72 151.08-16.41 149.92-16.09 149.13-15.59 148.33-15.09 147.75-14.31L147.75-14.31Q145.94-11.89 145.94-7.06L145.94-7.06 145.99-4.49 145.99 0 137.3 0.02 128.63 0.02 128.61-14.55ZM170.01-29.96L169.99-29.93Q171.08-30.25 172.33-30.25 173.57-30.25 174.7-30.15L174.7-30.15 175.72-30.05Q178.14-29.83 179.43-29.49L179.43-29.49 179.43-29.52 179.95-29.3Q185.07-27.71 187.93-24.46L187.93-24.46 187.93-24.49Q188.59-23.71 189.55-22.13 190.52-20.56 190.52-19.95L190.52-19.95 190.71-19.29 190.83-18.58Q191.3-16.94 191.3-15.84 191.3-14.75 191.32-14.16L191.32-14.16 171.21-14.16 171.21-13.35Q171.35-12.79 171.35-12.18 171.35-11.57 171.36-11.22 171.38-10.86 171.43-10.53 171.47-10.21 171.49-10 171.5-9.79 171.6-9.51 171.69-9.23 171.71-9.13 171.72-9.03 171.85-8.74 171.99-8.45 172.07-8.19 172.16-7.93 172.4-7.69L172.4-7.69 172.4-7.71 172.67-7.2Q173.13-6.69 173.94-6.47L173.94-6.47Q175.28-6.76 175.76-7.86 176.24-8.96 176.55-10.6L176.55-10.6Q177.43-10.84 179.04-10.84L179.04-10.84 182.17-10.77 191.18-10.77Q190.88-7.79 189.42-5.3L189.42-5.3 189.44-5.3Q188.17-3.3 185.49-1.86L185.49-1.86Q177.9 0.81 175.75 0.81L175.75 0.81Q175.36 0.81 175.11 0.76L175.11 0.76 174.55 0.76 174.33 0.78 174.11 0.78Q173.92 0.78 173.62 0.73L173.62 0.73Q173.38 0.88 173.04 0.88L173.04 0.88 170.91 0.63Q170.74 0.71 170.22 0.71 169.69 0.71 167.47 0.05L167.47 0.05 167.47 0.07 166.88-0.1 166.3-0.29Q162.64-1.37 160.02-4.06 157.41-6.76 156.68-10.35L156.68-10.35Q156.61-10.79 156.41-11.68 156.22-12.57 156.22-12.89L156.22-12.89 156.22-14.06Q156.22-14.48 156.24-14.7L156.24-14.7 156.24-15.06Q156.24-20.24 159.32-24.01 162.39-27.78 167.57-29.32L167.57-29.32 168.15-29.49Q169.45-29.71 170.01-29.96L170.01-29.96ZM174.11-17.38L177.28-17.38 177.8-17.7Q177.38-20.34 177.02-21.08 176.65-21.83 176.31-22.36L176.31-22.36Q175.67-23.39 174.64-23.39 173.6-23.39 172.87-22.36L172.87-22.36Q171.57-20.56 171.23-17.29L171.23-17.29Q172.79-17.38 174.11-17.38L174.11-17.38ZM213.76-28.86L213.76-29 213.83-31.47 213.83-37.94 221.11-37.94 228.43-37.96Q228.43-37.96 228.45 0.15L228.45 0.15 216 0.15Q215.49-0.68 215.25-1.39L215.25-1.39 214.27-3.1Q211.93-1.03 209.86-0.07 207.8 0.88 204.8 0.88L204.8 0.88Q199.94 0.88 196.62-2.98 193.3-6.84 193.3-12.87L193.3-12.87Q193.3-16.85 194.2-20.39L194.2-20.39Q195.18-23.8 197.35-26.77 199.52-29.74 203.01-30.13L203.01-30.13 203.38-30.1 205.46-30.25Q208.43-30.25 212.22-27.64L212.22-27.64 212.73-27.32 212.71-27.34Q213.27-26.98 213.42-26.81L213.42-26.81 214.17-27.15Q213.76-28.39 213.76-28.86L213.76-28.86ZM208.53-13.99L208.53-13.99 208.51-13.13 208.51-12.45Q208.51-11.11 209.02-9.69L209.02-9.69 209-9.72Q209.17-8.98 209.97-7.85 210.78-6.71 211.61-6.71L211.61-6.71Q211.93-6.71 212.12-6.84L212.12-6.84Q214.66-7.93 214.66-13.67L214.66-13.67Q214.66-17.65 213.34-20.02L213.34-20.02Q212.54-21.48 211.57-21.48 210.61-21.48 209.88-20.02L209.88-20.02Q208.53-17.36 208.53-13.99ZM231.31-38.48L246.4-38.53 246.42-31.84 231.38-31.84Q231.38-34.18 231.33-35.18L231.33-35.18 231.31-38.48ZM231.31-38.48L231.06-38.48 231.31-38.72 231.31-38.48ZM246.49-8.5L246.49-7.74 246.52-7.52 246.54-3.86Q246.54-2.86 246.44-1.46 246.35-0.07 246.27-0.02L246.27-0.02 245.83 0.02 236.95 0.02 235.92 0.12Q232.11 0.12 231.28 0.02L231.28 0.02 231.28-0.15 231.26-0.61 231.26-1.71Q231.26-6.52 231.41-9.69L231.41-9.69 231.67-28.49 231.67-29.22 233.58-29.25 233.99-29.22 234.7-29.22 235.31-29.2 235.63-29.22 237.39-29.22 237.75-29.25 246.08-29.15Q246.18-29.17 246.23-29.17 246.27-29.17 246.27-29.03L246.27-29.03 246.3-26.71Q246.32-24.39 246.4-20.5 246.47-16.6 246.47-14.99L246.47-14.99 246.44-11.94 246.44-10.64 246.52-9.35 246.52-8.59Q246.52-8.57 246.49-8.5L246.49-8.5ZM267.71-22.02L267.71-12.16 267.68-11.79Q267.68-10.94 267.74-10.53 267.8-10.13 268.24-9.58 268.68-9.03 271.1-9.03L271.1-9.03 271.76-9.01Q272.13-9.01 272.42-9.08L272.42-9.08 272.44 0.02 259.09 0.02 258.26 0.07 257.99 0.07Q257.09 0.07 256.01-0.51 254.94-1.1 254.41-1.55 253.89-2 253.52-2.71L253.52-2.71Q252.84-4.03 252.7-5.31 252.57-6.59 252.57-8.5L252.57-8.5 252.57-22.02 249.69-22.02 249.67-25.44 249.67-28.93 252.47-28.93 252.47-37.01 260.02-37.01 267.56-37.04 267.59-28.98 271.66-28.98 271.69-25.49 271.69-22.02 267.71-22.02Z"
                                      opacity="1"
                                      transform="matrix(1,0,0,1,0,0)"
                                      fill="#4f46e5"
                                      className="wordmark-text-0"
                                      data-fill-palette-color="primary"
                                      id="text-0"
                                    ></path>
                                  </svg>
                                </svg>
                              </svg>
                            </svg>
                          </svg>
                        </svg>
                      </svg>
                    </svg>